<svg width="661" height="1207" viewBox="0 0 661 1207" fill="none" xmlns="http://www.w3.org/2000/svg">
<g id="musclesFront" clip-path="url(#clip0_1_100)">
<g id="calves">
<path id="Vector" d="M502.8 1183.5C502.12 1184.55 500.94 1184.79 500.06 1184.81C499.13 1184.83 498.37 1185.62 498.37 1186.58C498.37 1186.96 498.23 1188.12 497.59 1188.76C497.2 1189.14 496.62 1189.32 495.84 1189.29C495.04 1189.25 494.33 1189.81 494.12 1190.61C494.12 1190.64 493.52 1192.94 491.85 1193.91C490.99 1194.42 489.97 1194.5 488.73 1194.15C488.04 1193.96 487.29 1194.22 486.87 1194.82C486.85 1194.85 485.01 1197.43 482.48 1197.72C481.09 1197.89 479.72 1197.34 478.29 1196.04C477.61 1195.42 476.58 1195.46 475.94 1196.12C475.9 1196.16 471.45 1200.65 465.79 1199.89C461.27 1199.28 457.06 1195.55 453.28 1188.8C453.07 1188.41 452.7 1188.11 452.26 1187.99C451.69 1187.82 438.06 1183.7 439.11 1170.62C439.29 1165.09 434.35 1162.21 428.1 1158.57L427.13 1158C421.21 1154.55 417.3 1152.27 421.01 1130.31C421.9 1123.17 420.59 1115.62 420.53 1115.31C420.42 1114.69 420.2 1114.26 419.63 1114.06C419.21 1113.7 416.11 1110.54 417.34 1096.51C418.85 1079.17 420.28 1062.79 399.59 995.15C398.48 991.3 396.91 989.07 395.41 986.91C391.33 981.08 387.1 975.05 393.09 930.49C395.44 909.15 396.23 900.69 395.59 895.8C402.26 902.39 409.82 906.06 417.22 906.06H417.56C425.94 905.93 433.06 901.21 437.62 892.77C442 884.67 444.63 881.29 450 879.6C450.31 880.57 450.72 881.76 451.23 883.23C456.9 899.53 471.96 942.82 459.53 1015.15C459.53 1015.2 459.53 1015.25 459.51 1015.3C458.81 1023.23 457.84 1031.47 456.91 1039.44C454.48 1060.29 452.18 1079.99 454.49 1092.72C456.21 1103.22 456.92 1107.7 457.09 1113.22C457.09 1113.37 457.12 1113.52 457.16 1113.67C458.5 1118.22 465.39 1129.4 469.95 1136.79C471.28 1138.93 472.41 1140.79 473.08 1141.93C473.88 1143.3 474.3 1144.31 474.67 1145.18C475.76 1147.77 476.56 1149.32 481.56 1153.44C482.46 1154.18 483.39 1154.93 484.36 1155.7C490.82 1160.9 498.14 1166.8 502.11 1175.77C503.52 1179.24 503.76 1181.98 502.8 1183.48V1183.5Z" fill="black"/>
<path id="Vector_2" d="M265.06 986.92C263.55 989.08 261.98 991.32 260.88 995.14C240.17 1062.81 241.6 1079.19 243.12 1096.52C244.34 1110.55 241.25 1113.72 240.83 1114.07C240.27 1114.27 240.04 1114.7 239.93 1115.32C239.88 1115.63 238.56 1123.18 239.46 1130.4C243.16 1152.27 239.25 1154.55 233.33 1158.01L232.35 1158.58C226.1 1162.22 221.17 1165.09 221.36 1170.71C222.4 1183.7 208.78 1187.83 208.2 1187.99C207.76 1188.11 207.4 1188.41 207.18 1188.8C203.4 1195.55 199.19 1199.27 194.67 1199.89C189 1200.65 184.57 1196.17 184.52 1196.12C183.89 1195.46 182.85 1195.42 182.17 1196.04C180.75 1197.33 179.37 1197.88 177.99 1197.72C175.46 1197.43 173.6 1194.84 173.58 1194.82C173.16 1194.22 172.43 1193.95 171.73 1194.15C170.48 1194.5 169.45 1194.42 168.6 1193.91C166.93 1192.93 166.33 1190.63 166.33 1190.61C166.13 1189.81 165.42 1189.25 164.61 1189.28C163.82 1189.31 163.25 1189.13 162.86 1188.75C162.22 1188.11 162.08 1186.96 162.08 1186.58C162.08 1185.62 161.34 1184.82 160.4 1184.81C159.52 1184.79 158.33 1184.55 157.65 1183.5C156.69 1182 156.93 1179.26 158.32 1175.84C162.32 1166.82 169.63 1160.92 176.1 1155.72C177.06 1154.95 177.99 1154.2 178.89 1153.46C183.89 1149.33 184.69 1147.79 185.78 1145.2C186.15 1144.32 186.57 1143.32 187.37 1141.95C188.04 1140.8 189.18 1138.96 190.49 1136.82C195.05 1129.42 201.95 1118.24 203.29 1113.69C203.33 1113.54 203.36 1113.39 203.36 1113.24C203.53 1107.72 204.24 1103.24 205.96 1092.77C208.27 1080 205.96 1060.3 203.54 1039.45C202.61 1031.49 201.64 1023.24 200.94 1015.31C200.94 1015.26 200.94 1015.21 200.92 1015.16C188.49 942.83 203.55 899.54 209.22 883.24C209.73 881.77 210.14 880.58 210.45 879.61C215.83 881.3 218.45 884.67 222.84 892.78C227.39 901.22 234.51 905.94 242.89 906.07H243.24C250.63 906.07 258.19 902.4 264.86 895.8C264.22 900.7 265.01 909.17 267.36 930.54C273.35 975.05 269.13 981.09 265.05 986.92H265.06Z" fill="black"/>
</g>
<g id="quads">
<path id="Vector_3" d="M452.4 783.8C452.4 783.8 452.4 783.86 452.38 783.89C452.38 783.91 452.38 783.93 452.38 783.95C451.58 787.67 450.86 791.45 450.16 795.1C447.15 810.81 444.3 825.65 437.09 829.31C434.16 830.8 430.54 830.4 426 828.13C423.84 827.05 421.94 826.88 420.34 827.66C417.21 829.18 416.22 833.61 414.96 839.23C412.88 848.52 410.53 859.06 398.4 859.27H398.15C376.14 859.27 368.97 808.73 368.91 808.22C368.91 808.17 368.89 808.12 368.88 808.08C366.42 789.82 362.49 771.49 357.12 753.38C356.02 749.66 354.21 744.57 352.11 738.67C345.58 720.29 335.72 692.49 334.36 670.02C334.25 666.4 334.19 663.18 334.13 660.35C333.98 653.3 333.89 648.83 333.34 646.18C348.17 644.12 355.02 625.58 367.14 583.73C380.79 536.56 416.28 523.65 429.49 520.42C432.19 542.21 435.65 565.89 437.68 574.1C437.82 574.65 438.01 575.42 438.27 576.41C447.68 612.77 465.64 698.65 452.41 783.83L452.4 783.8Z" fill="black"/>
<path id="Vector_4" d="M327.13 646.17C326.58 648.82 326.49 653.29 326.34 660.34C326.29 663.17 326.22 666.4 326.12 669.96C324.76 692.49 314.89 720.28 308.37 738.66C306.27 744.56 304.47 749.66 303.36 753.37C297.99 771.5 294.04 789.85 291.59 808.13C291.59 808.16 291.57 808.18 291.57 808.21C291.49 808.73 284.33 859.26 262.32 859.26H262.07C249.95 859.05 247.59 848.52 245.51 839.22C244.25 833.61 243.26 829.18 240.13 827.65C238.54 826.87 236.64 827.04 234.47 828.12C229.93 830.39 226.31 830.78 223.38 829.3C216.17 825.64 213.32 810.8 210.31 795.09C209.6 791.38 208.87 787.55 208.05 783.79V783.76C194.83 698.59 212.8 612.72 222.2 576.37C222.46 575.38 222.65 574.61 222.79 574.06C224.82 565.86 228.29 542.17 230.99 520.38C244.21 523.61 279.68 536.53 293.33 583.69C305.45 625.55 312.3 644.08 327.13 646.14V646.17Z" fill="black"/>
</g>
<g id="abdominals">
<path id="Vector_5" d="M385.82 350.44C383.5 345.08 376.47 341.12 369.43 338.12C369.4 338.1 369.38 338.09 369.35 338.09C367.75 337.52 366.17 336.89 364.6 336.19C364.57 336.19 364.54 336.17 364.51 336.15C354 332.19 340.77 329.41 335.07 333.46C333.08 334.88 332.12 337.08 332.12 340.19C332.12 341.16 331.35 341.94 330.41 341.94C330.35 341.94 330.29 341.94 330.24 341.94C330.18 341.94 330.12 341.94 330.06 341.94C329.12 341.94 328.35 341.16 328.35 340.19C328.35 337.08 327.38 334.87 325.4 333.46C319.7 329.4 306.47 332.19 295.96 336.15C295.93 336.17 295.9 336.18 295.87 336.19C294.3 336.89 292.72 337.52 291.12 338.09C291.09 338.11 291.05 338.12 291.01 338.13C283.98 341.13 276.98 345.09 274.65 350.44C273.18 353.82 273.99 356.49 275.46 361.32C276.68 365.34 278.3 370.62 279.02 378.41C279.02 378.41 279.02 378.44 279.02 378.45C279.13 379.25 279.19 380.08 279.23 380.94C279.26 381.61 279.31 382.29 279.33 383C279.43 385.61 279.37 386.85 279.3 388.54C279.21 390.36 279.09 392.85 279.15 398.49C279.24 409.9 281.45 459.01 283.49 491.73C286.77 544.37 318.24 584.53 330.07 584.53C330.13 584.53 330.19 584.53 330.25 584.53C330.3 584.53 330.36 584.53 330.42 584.53C342.25 584.53 373.72 544.37 377 491.73C379.05 459 381.24 409.89 381.34 398.49C381.39 392.85 381.27 390.36 381.19 388.54C381.11 386.84 381.05 385.61 381.16 383C381.19 382.29 381.23 381.61 381.26 380.94C381.29 380.07 381.35 379.24 381.47 378.45C381.47 378.43 381.47 378.41 381.47 378.41C382.2 370.62 383.81 365.34 385.03 361.32C386.5 356.49 387.31 353.82 385.84 350.44H385.82ZM332.12 571.92C332.12 572.89 331.35 573.67 330.41 573.67H330.06C329.12 573.67 328.35 572.89 328.35 571.92V504.57C328.35 503.61 329.12 502.82 330.06 502.82H330.41C331.35 502.82 332.12 503.61 332.12 504.57V571.92ZM361.89 479.09C356.12 478.97 340.95 480.48 335.72 481.7C332.89 482.36 332.14 485.15 331.95 489.45C332 490.72 332 491.99 332 493.19V493.98C332 494.94 331.23 495.73 330.29 495.73H330.18C329.24 495.73 328.47 494.94 328.47 493.98V493.19C328.47 491.98 328.47 490.72 328.52 489.45C328.33 485.16 327.58 482.36 324.76 481.7C319.52 480.48 304.36 478.97 298.58 479.09H298.55C297.62 479.09 296.86 478.34 296.84 477.39C296.82 476.42 297.57 475.62 298.52 475.6C304.61 475.47 319.99 477.01 325.52 478.29C327.8 478.82 329.29 480.08 330.25 481.75C331.2 480.08 332.69 478.82 334.97 478.29C340.51 477 355.91 475.47 361.97 475.6C362.92 475.63 363.66 476.42 363.65 477.39C363.63 478.35 362.84 479.16 361.9 479.09H361.89ZM369.89 472.83C364.41 473.02 360.59 473.3 357.21 473.55C353.01 473.86 349.47 474.11 344.32 474.11C342.65 474.11 340.82 474.08 338.73 474.02C334.09 473.67 331.58 472.15 330.23 468.82C328.89 472.15 326.4 473.66 321.8 474.01C319.67 474.07 317.8 474.11 316.1 474.11C310.96 474.11 307.43 473.85 303.24 473.55C299.86 473.31 296.04 473.03 290.56 472.83C289.62 472.79 288.87 471.98 288.91 471.02C288.94 470.05 289.71 469.29 290.68 469.33C296.22 469.53 300.07 469.81 303.48 470.06C308.96 470.45 313.28 470.77 321.62 470.52C326.81 470.12 328.34 469.28 328.34 452.97C328.34 452.01 329.11 451.22 330.05 451.22C330.11 451.22 330.17 451.22 330.23 451.22C330.28 451.22 330.34 451.22 330.4 451.22C331.34 451.22 332.11 452.01 332.11 452.97C332.11 469.28 333.63 470.12 338.9 470.52C347.17 470.76 351.49 470.45 356.96 470.06C360.37 469.82 364.22 469.54 369.76 469.33H369.82C370.74 469.33 371.5 470.07 371.53 471.02C371.56 471.98 370.82 472.79 369.88 472.83H369.89ZM298.34 426.66C303.89 426 313.17 424.91 321.44 425.03C326.29 425.1 328.87 427.03 330.24 429.78C331.6 427.04 334.17 425.1 339.03 425.03C347.3 424.92 356.58 426.01 362.13 426.66C363.07 426.77 363.75 427.64 363.64 428.6C363.53 429.56 362.67 430.24 361.74 430.14C356.27 429.49 347.13 428.41 339.08 428.52C333.13 428.6 332.13 431.62 332.13 440.65C332.13 441.62 331.36 442.4 330.42 442.4C330.36 442.4 330.3 442.4 330.25 442.4C330.19 442.4 330.13 442.4 330.07 442.4C329.13 442.4 328.36 441.62 328.36 440.65C328.36 431.62 327.36 428.59 321.41 428.52C313.38 428.41 304.21 429.49 298.75 430.14C297.82 430.25 296.96 429.56 296.85 428.6C296.75 427.64 297.41 426.77 298.36 426.66H298.34ZM371.36 425.01L369.92 425.04C366.45 425.1 363.02 425.15 359.71 425.15C348.57 425.15 338.7 424.5 332.73 421.04C331.65 420.42 330.84 419.61 330.23 418.64C329.61 419.6 328.8 420.41 327.72 421.04C321.75 424.5 311.88 425.15 300.74 425.15C297.43 425.15 294.01 425.1 290.53 425.04L289.09 425.01C288.15 425.01 287.4 424.21 287.4 423.24C287.42 422.29 288.18 421.52 289.11 421.52H289.14L290.58 421.55C305.25 421.79 319.08 422.03 326.02 418.01C327.72 417.02 328.34 414.93 328.49 411.77C328.41 410.29 328.44 408.72 328.49 407.07C328.47 406.55 328.46 405.99 328.44 405.43C328.38 403.66 328.31 401.85 328.31 399.93C328.31 398.97 329.08 398.18 330.02 398.18C330.08 398.18 330.14 398.18 330.2 398.18C330.25 398.18 330.31 398.18 330.37 398.18C331.31 398.18 332.08 398.97 332.08 399.93C332.08 401.84 332.02 403.67 331.95 405.43C331.93 405.95 331.92 406.45 331.91 406.93C331.96 408.66 331.99 410.32 331.91 411.87C332.08 414.97 332.7 417.04 334.38 418.02C341.32 422.04 355.16 421.81 369.82 421.56L371.26 421.53H371.29C372.22 421.53 372.98 422.3 373 423.25C373 424.22 372.26 425.02 371.31 425.02L371.36 425.01ZM298.11 377.35L299.32 377.03C304.74 375.56 313.84 373.11 321.55 374.46C326.32 375.29 328.87 377.38 330.24 380.04C331.6 377.38 334.16 375.29 338.92 374.46C346.64 373.11 355.72 375.56 361.15 377.03L362.36 377.35C363.28 377.59 363.83 378.55 363.59 379.48C363.35 380.42 362.42 380.97 361.5 380.73L360.28 380.41C355.12 379.01 346.49 376.69 339.5 377.9C333.23 378.99 332.12 382.27 332.12 388.76C332.12 389.72 331.35 390.51 330.41 390.51C330.35 390.51 330.29 390.51 330.24 390.51C330.18 390.51 330.12 390.51 330.06 390.51C329.12 390.51 328.35 389.72 328.35 388.76C328.35 382.27 327.25 378.99 320.97 377.9C313.98 376.68 305.35 379.02 300.19 380.41L298.97 380.73C298.05 380.97 297.12 380.42 296.88 379.48C296.65 378.54 297.2 377.59 298.11 377.35ZM375.7 377.49C375.49 378.25 374.8 378.75 374.06 378.75C373.91 378.75 373.74 378.73 373.58 378.68C359.68 374.54 350.26 372.05 336.49 372.32C333.23 372.3 331.34 370.47 330.24 367.6C329.14 370.47 327.25 372.3 324.01 372.32C310.22 372.04 300.79 374.54 286.89 378.68C286.73 378.73 286.56 378.75 286.41 378.75C285.67 378.75 284.98 378.25 284.77 377.49C284.5 376.56 285.03 375.59 285.93 375.32C300.15 371.09 309.81 368.54 324.04 368.82C328.05 368.8 328.35 362.04 328.35 351.71C328.35 350.74 329.12 349.96 330.06 349.96C330.12 349.96 330.18 349.96 330.24 349.96C330.29 349.96 330.35 349.96 330.41 349.96C331.35 349.96 332.12 350.74 332.12 351.71C332.12 362.03 332.42 368.8 336.47 368.82C350.66 368.53 360.32 371.08 374.54 375.32C375.45 375.59 375.97 376.56 375.7 377.49Z" fill="black"/>
</g>
<g id="obliques">
<path id="Vector_6" d="M272.8 406.06C270.06 421.64 266.95 439.29 269.31 455.72C274.14 489.29 262.76 504.57 257.66 509.58C251.44 515.67 240.86 518.57 231.43 516.89C232.7 506.47 233.75 496.72 234.34 489.61C234.76 484.6 235.43 479.57 236.13 474.26C238.71 454.79 241.37 434.66 231.74 415.12C212.51 377.3 207.41 353.5 206.42 348.01C207.55 344.57 208.41 341.03 209 337.46C209.92 331.64 212.02 318.35 207.62 308.26C209.9 310.45 211.95 312.86 213.91 315.29C215.09 316.75 216.31 318.16 217.59 319.5C227.75 331.06 239.68 341.56 250.21 350.82C263.39 362.41 274.77 372.43 275.6 378.6C275.6 378.65 275.62 378.71 275.62 378.76C275.7 379.59 275.77 380.45 275.82 381.34C275.82 381.4 275.82 381.46 275.82 381.53C276 387.88 274.5 396.41 272.8 406.06Z" fill="black"/>
<path id="Vector_7" d="M426.13 489.61C426.73 496.72 427.78 506.47 429.04 516.89C419.61 518.57 409.03 515.67 402.81 509.58C397.7 504.57 386.34 489.29 391.16 455.72C393.52 439.28 390.42 421.63 387.67 406.06C385.97 396.41 384.47 387.88 384.65 381.53C384.65 381.46 384.65 381.4 384.65 381.34C384.7 380.45 384.77 379.59 384.85 378.76C384.85 378.71 384.85 378.65 384.87 378.6C385.71 372.43 397.09 362.41 410.26 350.82C420.76 341.59 432.63 331.13 442.76 319.63C444.09 318.24 445.35 316.8 446.57 315.29C448.53 312.87 450.57 310.46 452.84 308.27C448.44 318.36 450.55 331.64 451.48 337.46C452.05 341.03 452.92 344.58 454.06 348.03C453.06 353.56 447.93 377.36 428.73 415.15C419.11 434.67 421.77 454.8 424.35 474.26C425.05 479.58 425.72 484.6 426.14 489.61H426.13Z" fill="black"/>
</g>
<g id="hands">
<path id="Vector_8" d="M641.72 606.51C641 603.43 639.96 602.12 638.51 600.31C637.31 598.81 635.91 597.06 634.51 593.98C634.9 597.67 635.96 599.86 636.95 601.87C638.06 604.14 639.2 606.49 639.13 610.26C639.06 613.53 639.28 615.74 639.51 617.88C639.84 621.02 640.13 623.98 639.3 629.25C639 631.16 639.25 632.55 640.05 633.41C640.78 634.19 641.94 634.5 642.93 634.62C642.93 633.41 643.08 632.12 643.32 630.74C644.93 621.61 644.6 620.23 643.59 616.11C643.08 614.03 642.39 611.2 641.72 606.5V606.51Z" fill="black"/>
<path id="Vector_9" d="M655.51 598.27C654.93 593.28 654.79 590.37 654.69 588.25C654.55 585.283 652.843 580.523 649.57 573.97L649.39 573.61C642.55 560.42 639.4 550.26 636.61 541.3C635.16 536.63 633.76 532.12 631.92 527.47C629.99 533.27 626.45 537.82 621.93 540.12C619.56 541.33 616.84 541.93 613.92 541.93C611.81 541.93 609.58 541.62 607.34 540.98C608.19 543.44 608.43 545.61 607.51 547.01C602.83 553.59 605.15 561.09 607.71 564.28C610.54 567.81 612.02 572.57 613.17 581.83C613.44 584.89 613.56 587.73 613.67 590.47C614.18 602.42 614.91 606.92 620.6 606.81C621.62 606.78 622.44 606.37 623.19 605.51C627.12 600.97 626.66 586.95 626.16 581.93C626.1 581.36 626.31 580.8 626.73 580.44C627.15 580.06 627.72 579.92 628.25 580.05C628.44 580.1 632.88 581.24 635.61 586.96C635.65 587.05 635.69 587.14 635.71 587.23C637.55 593.55 639.47 595.95 641.16 598.08C642.71 600.01 644.16 601.85 645.07 605.76C645.07 605.81 645.09 605.86 645.1 605.91C645.75 610.47 646.4 613.13 646.91 615.26C647.98 619.67 648.42 621.5 646.69 631.35C646.37 633.17 646.27 634.78 646.41 636.16C646.57 637.95 647.11 639.37 648.03 640.39C649.29 641.82 651.08 642.23 652.24 642.36C654.13 635.54 656.7 625.74 656.83 623.57L656.85 623.35C657.06 620.02 657.41 614.43 655.51 598.28V598.27Z" fill="black"/>
<path id="Vector_10" d="M18.73 606.51C18.05 611.2 17.36 614.05 16.86 616.12C15.87 620.25 15.53 621.64 17.13 630.75C17.37 632.13 17.51 633.43 17.51 634.63C18.5 634.52 19.66 634.2 20.39 633.42C21.19 632.56 21.44 631.16 21.14 629.26C20.3 623.99 20.61 621.02 20.93 617.89C21.15 615.75 21.37 613.54 21.31 610.27C21.23 606.49 22.37 604.15 23.48 601.88C24.46 599.87 25.52 597.68 25.92 593.99C24.53 597.07 23.12 598.82 21.92 600.32C20.47 602.13 19.43 603.44 18.71 606.52L18.73 606.51Z" fill="black"/>
<path id="Vector_11" d="M52.99 547.07C52.07 545.65 52.3 543.45 53.15 540.98C50.9 541.62 48.67 541.94 46.54 541.94C43.63 541.94 40.9 541.34 38.53 540.13C34 537.83 30.45 533.26 28.54 527.46C26.71 532.12 25.31 536.64 23.85 541.31C21.06 550.27 17.9 560.43 11.05 573.65L10.89 573.98C7.61664 580.533 5.90998 585.293 5.76998 588.26C5.66998 590.38 5.53998 593.29 4.94998 598.28C3.03998 614.44 3.39998 620.02 3.60998 623.36L3.62998 623.57C3.76998 625.74 6.32998 635.54 8.22998 642.36C9.37998 642.24 11.17 641.82 12.44 640.39C13.31 639.41 13.84 638.06 14.03 636.38C14.03 636.3 14.03 636.23 14.05 636.15C14.19 634.77 14.08 633.17 13.77 631.35C12.03 621.5 12.48 619.67 13.55 615.26C14.07 613.14 14.71 610.49 15.36 605.91C15.36 605.86 15.38 605.81 15.39 605.76C16.3 601.85 17.76 600.02 19.3 598.08C20.99 595.96 22.91 593.55 24.75 587.23C24.78 587.14 24.81 587.05 24.85 586.96C27.58 581.24 32.02 580.11 32.21 580.05C32.75 579.92 33.31 580.07 33.73 580.44C34.15 580.81 34.36 581.37 34.3 581.93C33.8 586.95 33.34 600.97 37.27 605.51C38.02 606.38 38.84 606.79 39.87 606.81C45.6 606.93 46.3 602.42 46.79 590.47C46.91 587.73 47.03 584.89 47.29 581.9C48.45 572.56 49.93 567.81 52.76 564.28C55.32 561.09 57.64 553.59 52.99 547.06V547.07Z" fill="black"/>
</g>
<g id="forearms">
<path id="Vector_12" d="M629.69 522.22C628.56 529 625.04 534.64 620.41 536.99C616.38 539.04 610.95 538.9 605.4 536.61C603.19 532.4 600.21 528.24 598.79 526.35C598.75 526.31 598.71 526.25 598.66 526.21C590.64 517.63 584.2 512.62 577.97 507.76C569.35 501.04 561.22 494.7 549.36 479.57C536.44 463.1 532.73 455.11 528.8 446.66C526.38 441.47 523.88 436.09 519.24 428.46C519.22 428.43 519.21 428.41 519.19 428.38C517.02 425.2 512.87 419.39 507.95 412.57C515.27 417.79 522.08 419.88 527.86 419.88C531.4 419.88 534.55 419.1 537.19 417.76C542.71 414.98 549.4 408.5 549.9 393.44C550.11 387 549.18 379.5 547.12 370.98C547.42 371.7 547.72 372.42 548.03 373.16C550.52 379.31 553.72 382.72 559.53 388.93C563.67 393.34 569.34 399.39 577.21 409.06C590.34 425.21 603.8 459.3 614.63 486.7C619.12 498.07 623.37 508.82 627.03 516.89C627.05 516.93 627.06 516.97 627.08 517C628.05 518.78 628.91 520.52 629.7 522.24L629.69 522.22Z" fill="black"/>
<path id="Vector_13" d="M152.48 412.57C147.57 419.38 143.43 425.19 141.26 428.37C141.24 428.4 141.23 428.42 141.21 428.45C136.57 436.09 134.07 441.46 131.65 446.65C127.72 455.1 124.01 463.09 111.09 479.56C99.23 494.69 91.09 501.03 82.48 507.75C76.25 512.61 69.82 517.63 61.79 526.2C61.75 526.24 61.7 526.3 61.66 526.34C60.25 528.23 57.27 532.38 55.06 536.6C49.52 538.89 44.08 539.04 40.04 536.98C35.41 534.63 31.89 529 30.76 522.21C31.55 520.5 32.41 518.76 33.38 516.97C33.4 516.93 33.42 516.89 33.44 516.86C37.09 508.8 41.34 498.05 45.83 486.67C56.65 459.27 70.11 425.18 83.25 409.03C91.11 399.36 96.79 393.31 100.93 388.9C106.74 382.69 109.95 379.27 112.43 373.15C112.73 372.44 113.01 371.74 113.31 371.05C111.27 379.53 110.35 387 110.56 393.41C111.05 408.47 117.74 414.95 123.26 417.73C125.9 419.07 129.05 419.85 132.59 419.85C138.36 419.85 145.16 417.76 152.47 412.56L152.48 412.57Z" fill="black"/>
</g>
<g id="biceps">
<path id="Vector_14" d="M535.68 414.61C527.11 418.94 512.15 416.32 495.89 396.02C495.87 396 495.86 395.98 495.84 395.96C486.13 382.8 476.79 370.47 474.5 368.31C474 367.84 473.45 367.32 472.84 366.77C468.34 362.63 461.53 356.38 457.53 346.37C457.39 346.02 457.16 345.75 456.86 345.57C456 342.73 455.32 339.82 454.85 336.91C453.75 329.95 450.82 311.46 460.66 303.28C466.19 298.67 473.86 298.91 481.99 299.14C482.91 299.17 484.26 299.24 485.93 299.43H485.96C486 299.43 486.05 299.45 486.09 299.45C486.11 299.45 486.12 299.45 486.14 299.45C486.17 299.45 486.2 299.45 486.23 299.45C488.77 299.76 492.05 300.33 495.77 301.43C495.77 301.43 495.77 301.43 495.79 301.43C495.93 301.49 496.08 301.54 496.24 301.55C496.26 301.55 496.27 301.55 496.27 301.55C498.76 302.3 501.45 303.28 504.24 304.56C507.5 306.06 510.63 307.85 513.56 309.85C514.01 310.39 514.52 310.93 515.06 311.52C517.87 314.54 522.67 319.69 531.07 335.9C531.07 335.92 531.09 335.93 531.09 335.94C531.09 335.94 531.09 335.96 531.11 335.97C556.56 393.56 544.9 409.95 535.68 414.59V414.61Z" fill="black"/>
<path id="Vector_15" d="M205.61 336.89C205.14 339.81 204.46 342.71 203.6 345.55C203.3 345.74 203.06 346.02 202.92 346.37C198.92 356.37 192.11 362.63 187.61 366.77C187 367.32 186.45 367.84 185.95 368.31C183.67 370.47 174.32 382.8 164.61 395.96C164.59 395.98 164.58 396 164.56 396.02C148.3 416.32 133.35 418.93 124.77 414.61C115.56 409.97 103.91 393.59 129.3 336.08C129.3 336.08 129.3 336.08 129.3 336.06L129.33 336.01C137.75 319.72 142.56 314.57 145.37 311.54C145.92 310.95 146.42 310.41 146.88 309.86C149.8 307.86 152.93 306.08 156.18 304.59C159 303.3 161.73 302.31 164.26 301.56C164.37 301.52 164.49 301.49 164.61 301.45C164.61 301.45 164.63 301.45 164.64 301.45C168.36 300.37 171.66 299.78 174.21 299.47C174.24 299.47 174.28 299.47 174.31 299.47H174.33C174.38 299.47 174.44 299.47 174.49 299.45C174.51 299.45 174.52 299.45 174.53 299.45C176.2 299.26 177.52 299.19 178.44 299.16C186.57 298.92 194.24 298.69 199.77 303.3C209.61 311.48 206.68 329.97 205.58 336.92L205.61 336.89Z" fill="black"/>
</g>
<g id="front-shoulders">
<path id="Vector_16" d="M510.6 303.91C508.99 303 507.35 302.16 505.66 301.38C498.02 297.89 491.1 296.5 486.47 295.96C479.03 294.09 473.29 291.84 469.85 289.46C457.04 280.59 446.95 268.49 442.06 262.63C437.47 257.11 434.11 252.56 431.14 248.55C424.68 239.81 420.02 233.5 409.02 226.35C403.82 222.98 397.91 220.41 393.93 218.86C402.27 216.12 420.89 211.16 438.52 214.75C439.49 214.99 440.51 215.26 441.56 215.53C442.81 215.85 443.9 216.13 444.64 216.33C444.98 216.42 445.48 216.5 446.23 216.63C478.77 222 492.12 244.89 497.59 263.11C498.34 265.85 499.15 267.87 500.17 270.44C502.19 275.51 505.23 283.13 510.59 303.9L510.6 303.91Z" fill="black"/>
<path id="Vector_17" d="M266.59 218.87C262.61 220.42 256.7 222.99 251.5 226.36C240.51 233.5 235.84 239.81 229.38 248.56C226.41 252.57 223.05 257.13 218.42 262.69C213.58 268.5 203.48 280.6 190.66 289.48C187.24 291.87 181.5 294.1 174.04 295.98H174.01C171.26 296.3 167.7 296.92 163.67 298.12C163.56 298.15 163.46 298.18 163.35 298.22C160.69 299.01 157.82 300.05 154.85 301.4C153.16 302.17 151.51 303.02 149.9 303.93C155.27 283.17 158.31 275.54 160.33 270.46C161.35 267.9 162.15 265.87 162.9 263.17C168.38 244.92 181.73 222.02 214.27 216.65C215.02 216.53 215.52 216.44 215.86 216.35C216.6 216.15 217.69 215.87 218.95 215.55C220.01 215.28 221.03 215.02 222.01 214.76C222.03 214.76 222.05 214.74 222.08 214.74C239.69 211.19 258.25 216.13 266.57 218.88L266.59 218.87Z" fill="black"/>
</g>
<g id="chest">
<path id="Vector_18" d="M473.89 295.55C458.99 295.94 450.62 304.77 443.93 313.07C443 314.22 442.04 315.33 441.05 316.41C440.96 316.47 440.89 316.54 440.82 316.63C440.67 316.8 440.54 316.95 440.38 317.12C422.22 336.37 394.83 343.35 370.67 334.87C369.04 334.18 367.4 333.53 365.78 332.92C356.42 328.72 348.26 322.51 341.55 314.45C335.47 307.14 332.11 297.67 332.11 287.75V237.94C332.11 237.22 332.3 220.35 358.73 217.78C374.13 216.29 382.83 218.92 387.5 220.33C387.76 220.41 388 220.49 388.24 220.55C388.28 220.57 388.33 220.59 388.36 220.59H388.39H388.41C388.46 220.61 388.51 220.63 388.56 220.64C388.73 220.7 388.92 220.76 389.1 220.81C391.74 221.73 400.26 224.81 407.18 229.31C417.66 236.11 421.93 241.9 428.41 250.66C431.4 254.72 434.8 259.31 439.49 264.94C444.44 270.88 454.74 283.22 467.93 292.36C469.54 293.48 471.53 294.55 473.89 295.54V295.55Z" fill="black"/>
<path id="Vector_19" d="M328.4 237.95V287.74C328.4 297.64 325.05 307.13 318.96 314.44C312.25 322.5 304.09 328.71 294.73 332.91C293.11 333.52 291.48 334.17 289.86 334.85C265.76 343.33 238.4 336.4 220.25 317.23C220.06 317.03 219.88 316.82 219.7 316.62C219.62 316.53 219.55 316.46 219.46 316.4C218.48 315.32 217.52 314.21 216.59 313.06C209.9 304.76 201.52 295.93 186.63 295.54C188.99 294.54 190.98 293.48 192.58 292.36C205.77 283.22 216.07 270.88 221.06 264.9C225.71 259.31 229.1 254.72 232.1 250.66C238.58 241.9 242.85 236.11 253.33 229.31C260.25 224.82 268.77 221.73 271.41 220.81C271.59 220.76 271.77 220.7 271.95 220.64C272 220.64 272.05 220.61 272.1 220.59C272.13 220.59 272.17 220.57 272.19 220.56C272.22 220.56 272.25 220.56 272.28 220.53C272.51 220.47 272.76 220.39 273.01 220.31C277.67 218.89 286.37 216.26 301.78 217.76C328.22 220.33 328.41 237.2 328.4 237.95Z" fill="black"/>
</g>
<g id="traps">
<path id="Vector_20" d="M287.92 178.7V199.55C287.92 209.55 282.72 213.22 271.79 217.02C268.44 215.69 252.17 209.67 233.91 210C234.22 209.75 234.55 209.48 234.92 209.19C238.07 206.67 242.38 203.23 245.36 201.84C247.32 200.92 251.88 198.96 256.71 196.9C264.11 193.73 272.51 190.12 275.59 188.55C279.27 186.68 284.79 181.69 287.91 178.71L287.92 178.7Z" fill="black"/>
<path id="Vector_21" d="M426.68 210C408.42 209.66 392.15 215.69 388.79 217.02C377.87 213.23 372.67 209.55 372.67 199.55V178.71C375.79 181.68 381.3 186.67 384.98 188.54C388.06 190.11 396.46 193.72 403.86 196.89C408.69 198.95 413.25 200.91 415.21 201.83C418.19 203.22 422.5 206.66 425.65 209.18C426.02 209.48 426.36 209.75 426.67 209.99L426.68 210Z" fill="black"/>
</g>
<g id="body">
<path id="Vector_22" d="M330.4 504.57V571.92" stroke="#484A68" stroke-width="3.46" stroke-linecap="round" stroke-linejoin="round"/>
<path id="Vector_23" d="M330.17 504.57V571.92" stroke="#484A68" stroke-width="3.46" stroke-linecap="round" stroke-linejoin="round"/>
<path id="Vector_24" d="M330.05 504.57V571.92" stroke="#484A68" stroke-width="3.46" stroke-linecap="round" stroke-linejoin="round"/>
<path id="Vector_25" d="M29 521.95V521.97C30.13 529.64 34.05 535.89 39.29 538.56C44.03 540.97 50.25 540.64 56.32 537.98" stroke="#484A68" stroke-width="3.46" stroke-linecap="round" stroke-linejoin="round"/>
<path id="Vector_26" d="M145.75 308.53C148.51 306.63 151.76 304.71 155.5 302.98C166.85 297.79 176.47 297.43 178.42 297.38C186.86 297.13 194.89 296.91 200.88 301.91C211.48 310.73 208.45 329.85 207.29 337.18C206.67 341 205.76 344.58 204.64 347.92" stroke="#484A68" stroke-width="3.46" stroke-linecap="round" stroke-linejoin="round"/>
<path id="Vector_27" d="M165.89 397.13C147.47 420.12 131.61 420 124.02 416.18C111.3 409.77 104.15 388.75 127.82 335.2C127.82 335.18 127.82 335.15 127.84 335.13" stroke="#484A68" stroke-width="3.46" stroke-linecap="round" stroke-linejoin="round"/>
<path id="Vector_28" d="M163.96 299.82H164" stroke="#484A68" stroke-width="3.46" stroke-linecap="round" stroke-linejoin="round"/>
<path id="Vector_29" d="M174.18 297.7H174.22C181.85 295.8 187.84 293.5 191.57 290.91C204.61 281.88 214.94 269.47 219.71 263.76C234.52 245.97 236.76 237.96 252.36 227.83C260.94 222.26 271.68 218.87 271.68 218.87C271.68 218.87 245.88 208.04 221.5 213.05H221.48" stroke="#484A68" stroke-width="3.46" stroke-linecap="round" stroke-linejoin="round"/>
<path id="Vector_30" d="M271.11 219.05C275.53 217.79 284.53 214.34 301.89 216.03C330.36 218.79 330.06 237.95 330.06 237.95V287.74C330.06 297.91 326.66 307.83 320.21 315.57C314.71 322.18 306.62 329.49 295.27 334.55C267.33 347.02 234.62 338.2 215.22 314.17C207.94 305.15 199.92 297.27 185.54 297.27" stroke="#484A68" stroke-width="3.46" stroke-linecap="round" stroke-linejoin="round"/>
<path id="Vector_31" d="M289.56 162.48V199.54C289.56 211.22 282.52 215.17 271.67 218.88C271.13 219.06 270.57 219.24 270 219.4" stroke="#484A68" stroke-width="3.46" stroke-linecap="round" stroke-linejoin="round"/>
<path id="Vector_32" d="M330.05 340.19C330.05 323.59 305.13 330.81 295.26 334.55C284.53 338.61 275.91 343.19 273.08 349.72C269.67 357.58 276.77 362.44 277.61 383.08C277.83 388.46 277.33 387.77 277.42 398.51C277.51 409.71 279.71 458.99 281.76 491.84C284.98 543.55 316.33 586.27 330.05 586.27" stroke="#484A68" stroke-width="3.46" stroke-linecap="round" stroke-linejoin="round"/>
<path id="Vector_33" d="M286.4 377C300.48 372.81 310.05 370.29 324 370.57C330.05 370.55 330.05 361.49 330.05 351.71" stroke="#484A68" stroke-width="3.46" stroke-linecap="round" stroke-linejoin="round"/>
<path id="Vector_34" d="M289.13 423.26C304.79 423.52 319.3 423.91 326.88 419.52C331.55 416.81 330.05 409.07 330.05 399.91" stroke="#484A68" stroke-width="3.46" stroke-linecap="round" stroke-linejoin="round"/>
<path id="Vector_35" d="M290.63 471.07C305.12 471.6 308.09 472.66 321.68 472.26C328.92 471.71 330.06 468.56 330.06 452.96" stroke="#484A68" stroke-width="3.46" stroke-linecap="round" stroke-linejoin="round"/>
<path id="Vector_36" d="M298.53 379.04C303.42 377.75 313.29 374.79 321.25 376.17C329.22 377.56 330.05 382.74 330.05 388.75" stroke="#484A68" stroke-width="3.46" stroke-linecap="round" stroke-linejoin="round"/>
<path id="Vector_37" d="M298.53 428.4C304.96 427.64 313.56 426.66 321.42 426.77C329.28 426.88 330.06 432.19 330.06 440.66" stroke="#484A68" stroke-width="3.46" stroke-linecap="round" stroke-linejoin="round"/>
<path id="Vector_38" d="M330.29 504.57V571.92" stroke="#484A68" stroke-width="3.46" stroke-linecap="round" stroke-linejoin="round"/>
<path id="Vector_39" d="M298.53 477.34C304.42 477.21 319.7 478.73 325.12 479.98C330.54 481.24 330.28 488.04 330.28 493.96" stroke="#484A68" stroke-width="3.46" stroke-linecap="round" stroke-linejoin="round"/>
<path id="Vector_40" d="M218.37 317.78C241.87 344.71 275.66 366.3 277.3 378.36C279.46 394.32 266.97 427.31 271.01 455.46C275.05 483.62 267.97 501.9 258.85 510.84C251.89 517.66 239.82 520.7 229.54 518.27" stroke="#484A68" stroke-width="3.46" stroke-linecap="round" stroke-linejoin="round"/>
<path id="Vector_41" d="M229.53 518.28C248.74 522.36 282.01 538.4 294.98 583.22C307.95 628.04 314.64 644.62 330.06 644.62" stroke="#484A68" stroke-width="3.46" stroke-linecap="round" stroke-linejoin="round"/>
<path id="Vector_42" d="M206.28 783.67C212.13 810.65 213.86 840.41 235.23 829.7C248.33 823.11 238.05 860.59 262.04 861.01C286.03 861.42 293.26 808.46 293.26 808.46" stroke="#484A68" stroke-width="3.46" stroke-linecap="round" stroke-linejoin="round"/>
<path id="Vector_43" d="M273.39 881.54C273.23 881.83 273.07 882.1 272.93 882.37C257.8 908.48 234.53 910.83 224.34 891.94C219.49 882.98 216.43 879.19 209.3 877.49" stroke="#484A68" stroke-width="3.46" stroke-linecap="round" stroke-linejoin="round"/>
<path id="Vector_44" d="M330.05 504.57V571.92" stroke="#484A68" stroke-width="3.46" stroke-linecap="round" stroke-linejoin="round"/>
<path id="Vector_45" d="M330.29 504.57V571.92" stroke="#484A68" stroke-width="3.46" stroke-linecap="round" stroke-linejoin="round"/>
<path id="Vector_46" d="M330.4 504.57V571.92" stroke="#484A68" stroke-width="3.46" stroke-linecap="round" stroke-linejoin="round"/>
<path id="Vector_47" d="M631.46 521.95V521.97C630.33 529.64 626.41 535.89 621.17 538.56C616.43 540.97 610.21 540.64 604.14 537.98" stroke="#484A68" stroke-width="3.46" stroke-linecap="round" stroke-linejoin="round"/>
<path id="Vector_48" d="M514.71 308.53C511.95 306.63 508.7 304.71 504.96 302.98C493.61 297.79 483.99 297.43 482.04 297.38C473.6 297.13 465.57 296.91 459.58 301.91C448.98 310.73 452.01 329.85 453.17 337.18C453.79 341 454.7 344.58 455.82 347.92" stroke="#484A68" stroke-width="3.46" stroke-linecap="round" stroke-linejoin="round"/>
<path id="Vector_49" d="M494.57 397.13C512.99 420.12 528.85 420 536.44 416.18C549.16 409.77 556.31 388.75 532.64 335.2C532.64 335.18 532.64 335.15 532.62 335.13" stroke="#484A68" stroke-width="3.46" stroke-linecap="round" stroke-linejoin="round"/>
<path id="Vector_50" d="M496.5 299.82H496.46" stroke="#484A68" stroke-width="3.46" stroke-linecap="round" stroke-linejoin="round"/>
<path id="Vector_51" d="M486.27 297.7H486.23C478.6 295.8 472.61 293.5 468.88 290.91C455.84 281.88 445.51 269.47 440.74 263.76C425.93 245.97 423.69 237.96 408.09 227.83C399.51 222.26 388.77 218.87 388.77 218.87C388.77 218.87 414.57 208.04 438.95 213.05H438.97" stroke="#484A68" stroke-width="3.46" stroke-linecap="round" stroke-linejoin="round"/>
<path id="Vector_52" d="M389.35 219.05C384.93 217.79 375.93 214.34 358.57 216.03C330.1 218.79 330.4 237.95 330.4 237.95V287.74C330.4 297.91 333.8 307.83 340.25 315.57C345.75 322.18 353.84 329.49 365.19 334.55C393.13 347.02 425.84 338.2 445.24 314.17C452.52 305.15 460.54 297.27 474.92 297.27" stroke="#484A68" stroke-width="3.46" stroke-linecap="round" stroke-linejoin="round"/>
<path id="Vector_53" d="M370.9 162.48V199.54C370.9 211.22 377.94 215.17 388.79 218.88C389.33 219.06 389.89 219.24 390.46 219.4" stroke="#484A68" stroke-width="3.46" stroke-linecap="round" stroke-linejoin="round"/>
<path id="Vector_54" d="M330.4 340.19C330.4 323.59 355.32 330.81 365.19 334.55C375.92 338.61 384.54 343.19 387.37 349.72C390.78 357.58 383.68 362.44 382.84 383.08C382.62 388.46 383.12 387.77 383.03 398.51C382.94 409.71 380.74 458.99 378.69 491.84C375.47 543.55 344.12 586.27 330.4 586.27" stroke="#484A68" stroke-width="3.46" stroke-linecap="round" stroke-linejoin="round"/>
<path id="Vector_55" d="M374.06 377C359.98 372.81 350.41 370.29 336.46 370.57C330.41 370.55 330.41 361.49 330.41 351.71" stroke="#484A68" stroke-width="3.46" stroke-linecap="round" stroke-linejoin="round"/>
<path id="Vector_56" d="M371.33 423.26C355.67 423.52 341.16 423.91 333.58 419.52C328.91 416.81 330.41 409.07 330.41 399.91" stroke="#484A68" stroke-width="3.46" stroke-linecap="round" stroke-linejoin="round"/>
<path id="Vector_57" d="M369.83 471.07C355.34 471.6 352.37 472.66 338.78 472.26C331.54 471.71 330.4 468.56 330.4 452.96" stroke="#484A68" stroke-width="3.46" stroke-linecap="round" stroke-linejoin="round"/>
<path id="Vector_58" d="M361.93 379.04C357.04 377.75 347.17 374.79 339.21 376.17C331.24 377.56 330.41 382.74 330.41 388.75" stroke="#484A68" stroke-width="3.46" stroke-linecap="round" stroke-linejoin="round"/>
<path id="Vector_59" d="M361.93 428.4C355.5 427.64 346.9 426.66 339.04 426.77C331.18 426.88 330.4 432.19 330.4 440.66" stroke="#484A68" stroke-width="3.46" stroke-linecap="round" stroke-linejoin="round"/>
<path id="Vector_60" d="M330.17 504.57V571.92" stroke="#484A68" stroke-width="3.46" stroke-linecap="round" stroke-linejoin="round"/>
<path id="Vector_61" d="M361.93 477.34C356.04 477.21 340.76 478.73 335.34 479.98C329.92 481.24 330.18 488.04 330.18 493.96" stroke="#484A68" stroke-width="3.46" stroke-linecap="round" stroke-linejoin="round"/>
<path id="Vector_62" d="M442.09 317.78C418.59 344.71 384.8 366.3 383.16 378.36C381 394.32 393.49 427.31 389.45 455.46C385.41 483.62 392.49 501.9 401.61 510.84C408.57 517.66 420.64 520.7 430.92 518.27" stroke="#484A68" stroke-width="3.46" stroke-linecap="round" stroke-linejoin="round"/>
<path id="Vector_63" d="M430.93 518.28C411.72 522.36 378.45 538.4 365.48 583.22C352.51 628.04 345.82 644.62 330.4 644.62" stroke="#484A68" stroke-width="3.46" stroke-linecap="round" stroke-linejoin="round"/>
<path id="Vector_64" d="M454.18 783.67C448.33 810.65 446.6 840.41 425.23 829.7C412.13 823.11 422.41 860.59 398.42 861.01C374.43 861.42 367.2 808.46 367.2 808.46" stroke="#484A68" stroke-width="3.46" stroke-linecap="round" stroke-linejoin="round"/>
<path id="Vector_65" d="M387.07 881.54C387.23 881.83 387.39 882.1 387.53 882.37C402.66 908.48 425.93 910.83 436.12 891.94C440.97 882.98 444.03 879.19 451.16 877.49" stroke="#484A68" stroke-width="3.46" stroke-linecap="round" stroke-linejoin="round"/>
<path id="Vector_66" d="M282.69 83.67C282.69 83.67 271.66 80.03 273.07 99.2C274.48 118.37 279.56 121.68 286.61 120.24C286.61 120.24 287.17 130.04 290 135.81C290 135.81 289.72 167.37 289.01 175.16C289.01 175.16 279.84 184.38 274.76 186.98C269.68 189.57 249.51 197.93 244.57 200.24C239.63 202.55 231.59 209.9 230.04 210.62C228.49 211.34 218.61 213.79 215.37 214.66C212.13 215.52 174.6 217.98 161.2 262.66C158.94 270.88 156.12 272.61 147.94 304.46C145.12 313.68 138.63 305.47 110.84 372.49C106.75 382.58 100.68 384.89 81.92 407.95C63.16 431.01 44.39 488.58 31.88 516.16C21.89 534.64 22.45 547.91 9.52995 572.85C2.06995 587.78 5.19995 581.4 3.23995 598.08C1.27995 614.76 1.69995 620.36 1.90995 623.7C2.11995 627.03 6.93995 644.14 6.93995 644.14C6.93995 644.14 17.93 645.17 15.45 631.05C12.96 616.93 15.01 620.36 17.05 606.17C18.83 598.45 22.83 599.98 26.38 587.74C28.79 582.7 32.6 581.77 32.6 581.77C32.6 581.77 29.9 608.38 39.83 608.58C49.76 608.78 47.73 596.6 48.99 582.08C50.06 573.45 51.39 568.76 54.08 565.41C56.77 562.06 59.7799 553.66 54.3699 546.05C52.1899 542.72 60.9899 530.15 63.0299 527.43C81.8699 507.31 91.72 507.09 112.43 480.67C133.14 454.25 130.27 449.77 142.67 429.38C150.68 417.64 182.89 373.61 187.12 369.6C191.35 365.58 199.82 358.79 204.51 347.05C204.51 347.05 207.84 371.92 230.21 415.95C242.15 440.2 234.59 466 232.63 489.48C230.66 512.96 224.16 561.47 221.14 573.67C218.12 585.87 182.85 711.13 215 823.86C214.68 850.91 212.48 850.59 211.22 857.68C209.96 864.77 210.9 869.6 209.33 877.33C207.75 885.06 184.74 931.12 199.24 1015.5C201.76 1043.84 207.44 1075.08 204.28 1092.48C202.51 1103.23 201.83 1107.61 201.66 1113.21C200 1118.85 188.81 1136.1 185.91 1141.08C183.01 1146.06 184.79 1146.37 177.83 1152.13C170.86 1157.89 161.55 1164.36 156.78 1175.16C153.57 1183.08 156.39 1186.51 160.38 1186.59C160.38 1186.59 160.3 1191.23 164.68 1191.07C164.68 1191.07 166.25 1197.55 172.19 1195.87C172.19 1195.87 177.12 1202.99 183.3 1197.39C183.3 1197.39 196.6 1211.22 208.66 1189.71C208.66 1189.71 224.23 1185.23 223.06 1170.6C222.9 1165.88 227.6 1163.4 234.17 1159.57C240.74 1155.73 244.97 1152.77 241.14 1130.14C240.28 1123.18 241.61 1115.67 241.61 1115.67C241.61 1115.67 246.31 1113.43 244.82 1096.4C243.33 1079.37 241.95 1062.89 262.52 995.69C266.59 981.6 277.21 990.84 269.07 930.34C264.55 889.24 265.91 896.72 271.78 884.66C277.66 872.61 288.73 860.83 291.22 828.04C293.71 795.25 300.49 769.16 305.01 753.91C309.53 738.67 326.03 700.11 327.84 670.09C328.35 652.95 327.95 644.65 330.07 644.65" stroke="#484A68" stroke-width="3.46" stroke-linecap="round" stroke-linejoin="round"/>
<path id="Vector_67" d="M15.74 636.36C15.74 636.36 24.19 637.44 22.84 628.96C21.49 620.48 23.2 618.55 23.03 610.2C22.86 601.86 29.18 601.87 27.55 585.8" stroke="#484A68" stroke-width="3.46" stroke-linecap="round" stroke-linejoin="round"/>
<path id="Vector_68" d="M377.77 83.67C377.77 83.67 388.8 80.03 387.39 99.2C385.98 118.37 380.9 121.68 373.85 120.24C373.85 120.24 373.29 130.04 370.46 135.81C370.46 135.81 370.74 167.37 371.45 175.16C371.45 175.16 380.62 184.38 385.7 186.98C390.78 189.57 410.95 197.93 415.89 200.24C420.83 202.55 428.87 209.9 430.42 210.62C431.97 211.34 441.85 213.79 445.09 214.66C448.33 215.52 485.86 217.98 499.26 262.66C501.52 270.88 504.34 272.61 512.52 304.46C515.34 313.68 521.83 305.47 549.62 372.49C553.71 382.58 559.78 384.89 578.54 407.95C597.3 431.01 616.07 488.58 628.58 516.16C638.57 534.64 638.01 547.91 650.93 572.85C658.39 587.78 655.26 581.4 657.22 598.08C659.18 614.76 658.76 620.36 658.55 623.7C658.34 627.03 653.52 644.14 653.52 644.14C653.52 644.14 642.53 645.17 645.01 631.05C647.5 616.93 645.45 620.36 643.41 606.17C641.63 598.45 637.63 599.98 634.08 587.74C631.67 582.7 627.86 581.77 627.86 581.77C627.86 581.77 630.56 608.38 620.63 608.58C610.7 608.78 612.73 596.6 611.47 582.08C610.4 573.45 609.07 568.76 606.38 565.41C603.69 562.06 600.68 553.66 606.09 546.05C608.27 542.72 599.47 530.15 597.43 527.43C578.59 507.31 568.74 507.09 548.03 480.67C527.32 454.25 530.19 449.77 517.79 429.38C509.78 417.64 477.57 373.61 473.34 369.6C469.11 365.59 460.64 358.79 455.95 347.05C455.95 347.05 452.62 371.92 430.25 415.95C418.31 440.2 425.87 466 427.83 489.48C429.8 512.96 436.3 561.47 439.32 573.67C442.34 585.87 477.61 711.13 445.46 823.86C445.78 850.91 447.98 850.59 449.24 857.68C450.5 864.77 449.56 869.6 451.13 877.33C452.71 885.06 475.72 931.12 461.22 1015.5C458.7 1043.84 453.02 1075.08 456.18 1092.48C457.95 1103.23 458.63 1107.61 458.8 1113.21C460.46 1118.85 471.65 1136.1 474.55 1141.08C477.45 1146.06 475.67 1146.37 482.63 1152.13C489.6 1157.89 498.91 1164.36 503.68 1175.16C506.89 1183.08 504.07 1186.51 500.08 1186.59C500.08 1186.59 500.16 1191.23 495.78 1191.07C495.78 1191.07 494.21 1197.55 488.27 1195.87C488.27 1195.87 483.34 1202.99 477.16 1197.39C477.16 1197.39 463.86 1211.22 451.8 1189.71C451.8 1189.71 436.23 1185.23 437.4 1170.6C437.56 1165.88 432.86 1163.4 426.29 1159.57C419.72 1155.73 415.49 1152.77 419.32 1130.14C420.18 1123.18 418.85 1115.67 418.85 1115.67C418.85 1115.67 414.15 1113.43 415.64 1096.4C417.13 1079.37 418.51 1062.89 397.94 995.69C393.87 981.6 383.25 990.84 391.39 930.34C395.91 889.24 394.55 896.72 388.68 884.66C382.8 872.61 371.73 860.83 369.24 828.04C366.75 795.25 359.97 769.16 355.45 753.91C350.93 738.67 334.43 700.11 332.62 670.09C332.11 652.95 332.51 644.65 330.39 644.65" stroke="#484A68" stroke-width="3.46" stroke-linecap="round" stroke-linejoin="round"/>
<path id="Vector_69" d="M644.72 636.36C644.72 636.36 636.27 637.44 637.62 628.96C638.97 620.48 637.26 618.55 637.43 610.2C637.6 601.85 631.28 601.87 632.91 585.8" stroke="#484A68" stroke-width="3.46" stroke-linecap="round" stroke-linejoin="round"/>
<path id="Vector_70" d="M282.82 83.56C282.82 83.56 283.36 68.66 282.82 59.02C282.28 49.39 289.33 31.25 299.67 36.59C310.56 42.22 331.95 47.35 358 36.59C365.35 34.33 372.26 46.68 373.52 60.68C374.77 74.68 376.21 81.91 377.82 83.56" stroke="#484A68" stroke-width="3.46" stroke-linecap="round" stroke-linejoin="round"/>
<g id="Group">
<path id="Vector_71" d="M370.84 135.77C370.84 135.77 360.27 156.25 330.58 161.68" stroke="#484A68" stroke-width="3.46" stroke-linecap="round" stroke-linejoin="round"/>
<path id="Vector_72" d="M289.97 135.77C289.97 135.77 300.54 156.25 330.23 161.68" stroke="#484A68" stroke-width="3.46" stroke-linecap="round" stroke-linejoin="round"/>
</g>
<path id="Vector_73" d="M282.69 83.67C277.33 79.81 279.08 63.6 276.64 46.28C274.08 28.09 292.91 14.12 301.53 11.69C307.39 10.04 283.25 12.98 307.92 4.92998C332.59 -3.12002 341.29 7.05998 345.58 8.33998C349.32 7.88998 335.65 -0.0900207 357.45 7.21998C377.81 14.04 381.22 30.02 379.52 46.57C377.32 67.89 381.67 75.65 377.76 83.67" stroke="#484A68" stroke-width="3.46" stroke-linecap="round" stroke-linejoin="round"/>
</g>
</g>
<defs>
<clipPath id="clip0_1_100">
<rect width="660.46" height="1206.46" fill="white"/>
</clipPath>
</defs>
</svg>
