<svg width="661" height="1207" viewBox="0 0 661 1207" fill="none" xmlns="http://www.w3.org/2000/svg">
<g id="svg-image-21 1" clip-path="url(#clip0_1_2)">
<g id="traps">
<path id="Vector" d="M233.69 210.53C236.9 208.56 241.28 205.87 244.38 204.47C246.37 203.57 250.98 201.66 255.87 199.63C260.87 197.56 266.32 195.29 270.31 193.56C270.35 193.56 270.38 193.56 270.42 193.54C289.97 188.27 310.81 189.3 322 189.85C323.19 189.91 324.28 189.96 325.24 190.01C328.57 190.15 331.96 190.15 335.28 190.01C336.24 189.97 337.32 189.91 338.51 189.85C349.71 189.3 370.54 188.27 390.09 193.54C390.13 193.54 390.16 193.56 390.2 193.56C394.2 195.29 399.65 197.56 404.65 199.63C409.54 201.66 414.15 203.57 416.14 204.47C419.22 205.87 423.62 208.56 426.83 210.53C426.89 210.57 426.95 210.61 427.02 210.64C410.89 212.99 401.43 222.35 396.17 228.07C396.17 228.07 396.15 228.1 396.15 228.11C395.79 228.5 395.44 228.88 395.12 229.23L394.59 229.81L394.55 229.85C387.85 237.18 382.75 236.26 370.41 234.05C361.39 232.43 349.04 230.22 330.27 230.22C311.5 230.22 299.15 232.43 290.13 234.05C277.8 236.26 272.69 237.17 265.99 229.85C265.97 229.83 265.96 229.81 265.95 229.81L265.43 229.23C260.43 223.73 250.81 213.17 233.54 210.64C233.59 210.6 233.65 210.56 233.72 210.53H233.69Z" fill="black"/>
</g>
<g id="calves">
<path id="Vector_2" d="M475.03 965.71V965.79C473.62 992.01 470.41 1018.85 457.41 1019.62C450.09 1020.07 444.32 1008.35 440.13 999.8C436.65 992.71 434.35 988.02 430.99 988.31C426.76 988.67 426.18 994.27 425.45 1001.37C424.55 1010.15 423.43 1021.07 415.34 1022.75C412.17 1023.41 402.51 1025.41 393.37 1001.78C393.37 1001.76 393.37 1001.74 393.35 1001.72C390.39 992.1 390.08 978.8 394.45 937.19C395.26 937.07 395.9 936.39 395.94 935.55C396.33 926.99 399.72 920.6 405.26 918C410.16 915.7 416.19 916.61 421.38 920.44C429.01 926.06 437.88 917.51 445.72 909.97C450.84 905.04 456.63 899.45 460 900.36C461.49 900.76 462.61 902.55 463.41 904.55C463.41 904.58 463.43 904.61 463.44 904.64C463.72 905.49 464 906.34 464.29 907.21C469.17 922.18 474.6 940.09 475.03 965.71Z" fill="black"/>
<path id="Vector_3" d="M267.16 1001.72C267.16 1001.72 267.14 1001.76 267.14 1001.78C258.01 1025.42 248.36 1023.42 245.17 1022.75C237.08 1021.07 235.96 1010.14 235.06 1001.37C234.34 994.27 233.76 988.67 229.53 988.31C226.16 988.02 223.87 992.71 220.39 999.8C216.19 1008.34 210.48 1020.07 203.1 1019.62C190.12 1018.85 186.91 992.03 185.48 965.82V965.78C185.9 940.12 191.34 922.17 196.23 907.2C196.52 906.33 196.8 905.48 197.08 904.63C197.08 904.6 197.1 904.57 197.11 904.54C197.91 902.55 199.03 900.75 200.52 900.35C203.89 899.44 209.68 905.03 214.8 909.96C222.63 917.5 231.52 926.05 239.14 920.43C244.34 916.6 250.37 915.69 255.26 917.99C260.79 920.59 264.19 926.98 264.58 935.54C264.62 936.38 265.25 937.06 266.06 937.18C270.44 978.79 270.13 992.11 267.16 1001.71V1001.72Z" fill="black"/>
</g>
<g id="hamstrings">
<path id="Vector_4" d="M455.77 791.39C454.58 797.77 453.19 804.04 451.56 810.17C451.07 812.39 450.84 814.72 450.8 817.17C446.9 832.96 441.53 847.25 435.77 847.94C433.67 848.18 429.31 846.44 423.46 831.84C416.19 813.73 414.28 811.94 411.92 812.35C409.2 812.82 409.07 816.57 408.78 825.64C408.34 839.55 407.59 862.82 394.17 862.82C382.27 862.82 374.43 842.77 367.1 793.63C367.02 793.14 366.75 792.72 366.37 792.46C362.9 776.03 358.92 762.03 354.82 747.57C351.58 736.18 348.24 724.4 345.1 711.12C338.12 681.69 336.9 667.44 335.48 650.93C335.09 646.46 334.7 641.92 334.19 636.92C335.03 638.07 335.96 639.11 336.97 640.06C342.94 645.58 351.34 646.95 360.8 646.95C365.41 646.95 370.28 646.62 375.23 646.29C376.86 646.18 378.5 646.07 380.14 645.98C388.93 645.45 410.66 642.33 422.79 624.8C432.9 610.18 433.76 589.56 425.34 563.52C423.7 558.48 422.41 553.76 421.15 549.19C418.05 537.97 415.42 528.46 409.77 521.06C423.47 529.31 436.7 541.14 437.95 552.64V552.68C437.98 554.12 437.9 555.29 437.83 556.4C437.55 560.67 437.3 564.35 441.81 577.35C450.13 601.32 471.68 705.87 455.77 791.42V791.39Z" fill="black"/>
<path id="Vector_5" d="M326.33 636.9C325.81 641.91 325.42 646.46 325.04 650.92C323.63 667.42 322.41 681.68 315.42 711.12C312.27 724.4 308.93 736.17 305.7 747.57C301.6 762.03 297.62 776.03 294.15 792.46C293.76 792.72 293.49 793.14 293.41 793.63C286.09 842.78 278.25 862.82 266.35 862.82C252.92 862.82 252.18 839.55 251.73 825.64C251.44 816.57 251.32 812.82 248.6 812.35C246.25 811.95 244.34 813.73 237.06 831.84C231.21 846.43 226.84 848.2 224.75 847.94C219 847.25 213.61 832.93 209.71 817.13C209.66 814.66 209.42 812.33 208.93 810.08C207.32 804.02 205.94 797.81 204.77 791.5C204.75 791.44 204.74 791.37 204.73 791.31C188.84 705.83 210.38 601.28 218.7 577.31C223.21 564.31 222.97 560.63 222.69 556.36C222.62 555.24 222.54 554.07 222.57 552.63V552.57C223.85 541.09 237.06 529.27 250.75 521.03C245.09 528.44 242.47 537.95 239.37 549.17C238.11 553.73 236.81 558.45 235.18 563.49C226.75 589.53 227.6 610.15 237.73 624.77C249.86 642.3 271.59 645.42 280.38 645.95C282.02 646.05 283.66 646.16 285.29 646.26C290.24 646.59 295.1 646.92 299.72 646.92C309.18 646.92 317.58 645.54 323.54 640.03C324.57 639.09 325.49 638.04 326.33 636.87V636.9Z" fill="black"/>
</g>
<g id="glutes">
<path id="Vector_6" d="M419.87 622.8C408.64 639.05 388.2 641.97 379.93 642.47C378.28 642.57 376.62 642.68 374.99 642.78C360.67 643.74 347.14 644.65 339.39 637.49C334.43 632.91 332.02 625.24 332.02 614.04V553.7C332.02 535.81 337.14 522.97 347.22 515.54C359.14 506.76 375.76 507.3 387.32 510.72C389.18 511.27 390.9 511.87 392.5 512.53C392.5 512.53 392.53 512.53 392.54 512.55C393.09 512.77 393.62 513 394.14 513.24C394.17 513.24 394.19 513.26 394.21 513.27C409.5 520.25 412.89 532.55 417.73 550.08C418.99 554.68 420.31 559.43 421.96 564.55C430.04 589.51 429.33 609.11 419.86 622.79L419.87 622.8Z" fill="black"/>
<path id="Vector_7" d="M328.49 553.72V614.06C328.49 625.26 326.09 632.93 321.13 637.51C313.39 644.67 299.85 643.76 285.53 642.8C283.89 642.69 282.24 642.58 280.59 642.49C272.32 641.99 251.89 639.07 240.64 622.82C231.17 609.14 230.47 589.54 238.54 564.58C240.19 559.47 241.5 554.71 242.77 550.11C247.6 532.57 251 520.28 266.29 513.3C266.88 513.06 267.46 512.82 268 512.56C269.59 511.9 271.31 511.31 273.15 510.76C284.72 507.33 301.33 506.8 313.26 515.58C323.35 523.01 328.46 535.84 328.46 553.74L328.49 553.72Z" fill="black"/>
</g>
<g id="hands">
<path id="Vector_8" d="M639.94 626.64C640.38 626.12 640.3 625.67 639.31 623.03C638.23 620.13 636.43 615.28 635.59 606.86C635.44 606.07 635.24 605 635.09 604.52C634.99 604.5 634.88 604.49 634.77 604.46C633.9 604.3 632.61 604.06 630.59 603.13C630.95 604.88 631.11 606.65 631.28 608.48C631.5 610.97 631.73 613.54 632.5 616.44C634.77 625.07 634.38 626.07 630.67 631.31C630.28 631.86 629.85 632.47 629.37 633.15C628.07 635.05 627.59 636.88 627.96 638.62C628.26 640.09 629.11 641.3 629.92 642.19C630.77 640.35 632.13 638.54 633.99 636.77C634.69 635.35 637.68 629.37 639.94 626.65V626.64Z" fill="black"/>
<path id="Vector_9" d="M651.49 583.8C648.47 574.11 645.6 564.95 645.57 559.74C645.88 548.1 644.99 542.97 643.78 540.06C641.28 546.58 637.12 551.4 632.26 553.27C630.55 553.93 628.64 554.24 626.59 554.24C623.3 554.24 619.69 553.4 616.05 551.78C617.95 557.83 616.62 560.25 616.25 560.78C616.22 560.81 616.21 560.83 616.18 560.86C608.18 570.71 609.15 576.53 610.19 582.71C610.68 585.61 611.18 588.61 610.63 591.92C607.54 606.57 607.34 612.4 607.39 614.23C610.09 615.92 612.29 616.33 613.94 615.45C618.35 613.09 619.71 601.64 619.54 594.98C619.52 594.3 619.9 593.67 620.52 593.36C621.14 593.06 621.88 593.14 622.42 593.57C624.75 595.44 626.7 596.82 628.31 597.86C628.38 597.9 628.44 597.94 628.51 597.99C632.37 600.43 634.32 600.8 635.42 601.01C638.18 601.53 638.4 602.73 639.06 606.28C639.06 606.32 639.06 606.38 639.08 606.43C639.88 614.45 641.52 618.88 642.62 621.81C643.68 624.65 644.44 626.71 642.66 628.86C640.41 631.56 637.06 638.48 637.03 638.55C636.93 638.75 636.8 638.93 636.64 639.08C633.75 641.73 632.33 644.37 632.39 646.91C632.44 648.65 633.19 650.08 633.88 651.04C636.86 647.92 639.86 645.74 642.55 643.8C647.03 640.55 650.28 638.21 651.1 633.25C651.72 629.5 652.79 625.37 653.81 621.39C655.36 615.42 656.96 609.25 656.97 604.55C656.46 599.78 653.93 591.66 651.47 583.81L651.49 583.8Z" fill="black"/>
<path id="Vector_10" d="M29.85 631.3C26.13 626.06 25.75 625.06 28.02 616.43C28.79 613.54 29.02 610.97 29.24 608.47C29.41 606.64 29.57 604.87 29.93 603.12C27.91 604.05 26.61 604.29 25.74 604.45C25.64 604.48 25.53 604.49 25.43 604.51C25.27 604.99 25.07 606.07 24.93 606.85C24.09 615.27 22.29 620.12 21.2 623.02C20.22 625.66 20.14 626.11 20.58 626.63C22.84 629.35 25.83 635.33 26.53 636.75C28.4 638.52 29.76 640.32 30.6 642.16C31.41 641.29 32.25 640.07 32.56 638.6C32.92 636.86 32.45 635.02 31.14 633.13C30.67 632.45 30.24 631.84 29.85 631.29V631.3Z" fill="black"/>
<path id="Vector_11" d="M49.89 591.99C49.32 588.61 49.83 585.61 50.31 582.71C51.34 576.54 52.32 570.72 44.31 560.86C44.29 560.83 44.27 560.81 44.25 560.78C43.88 560.26 42.54 557.83 44.45 551.79C40.82 553.41 37.2 554.25 33.91 554.25C31.87 554.25 29.96 553.93 28.24 553.27C23.38 551.4 19.23 546.58 16.73 540.05C15.52 542.96 14.63 548.08 14.94 559.68C14.9 564.94 12.05 574.1 9.02003 583.79C6.57003 591.64 4.03003 599.75 3.53003 604.53C3.55003 609.22 5.15003 615.4 6.69003 621.37C7.72003 625.36 8.79003 629.48 9.41003 633.23C10.23 638.19 13.47 640.53 17.95 643.78C20.65 645.72 23.64 647.9 26.62 651.02C27.32 650.06 28.08 648.62 28.11 646.86C28.11 646.39 28.08 645.91 27.99 645.43C27.58 643.35 26.2 641.22 23.87 639.07C23.71 638.92 23.58 638.74 23.48 638.54C23.44 638.47 20.09 631.54 17.85 628.85C16.06 626.7 16.82 624.65 17.89 621.8C18.98 618.87 20.63 614.44 21.43 606.42C21.43 606.37 21.43 606.32 21.45 606.27C22.11 602.72 22.33 601.52 25.09 601C26.66 600.7 29.95 600.07 38.09 593.56C38.63 593.13 39.36 593.05 39.98 593.35C40.6 593.66 40.99 594.29 40.97 594.97C40.79 601.63 42.15 613.08 46.57 615.44C48.22 616.32 50.42 615.91 53.12 614.22C53.17 612.44 52.99 606.62 49.9 592L49.89 591.99Z" fill="black"/>
</g>
<g id="forearms">
<path id="Vector_12" d="M641.37 536.12C639.41 543 635.47 548.29 630.99 550.01C626.55 551.7 620.26 550.51 614.08 546.81C609.78 537.67 599.77 523.08 577.42 500.39C563.58 486.44 554.2 470.27 545.13 454.63C539.4 444.74 533.99 435.42 527.57 426.67L527.15 426.1C522.02 419.12 518.22 413.95 515.15 409.87C520.71 413.72 525.02 415.56 528.36 415.56C529.39 415.56 530.33 415.39 531.18 415.04C536.26 412.98 536.67 405.9 537.07 399.05C537.34 394.51 537.64 389.37 539.48 388.24C541.65 386.91 545.8 388.12 549.46 389.19C553.95 390.5 558.6 391.86 561.3 389.09C562.37 387.99 562.96 386.39 563.04 384.18C563.72 384.97 564.48 385.75 565.33 386.53C572.92 393.51 598.81 419.18 613.2 456.3C622.71 480.84 630.63 505.29 635.37 519.9C637.71 527.13 639.27 531.91 640.01 533.66C640.43 534.65 640.9 535.41 641.38 536.1L641.37 536.12Z" fill="black"/>
<path id="Vector_13" d="M145.36 409.89C142.29 413.96 138.49 419.14 133.37 426.11L132.95 426.68C126.52 435.42 121.11 444.75 115.39 454.64C106.32 470.27 96.94 486.44 83.09 500.4C60.74 523.09 50.73 537.67 46.44 546.81C40.26 550.51 33.97 551.71 29.53 550.01C25.05 548.29 21.11 543 19.15 536.11C19.63 535.42 20.1 534.66 20.52 533.68C21.26 531.93 22.81 527.15 25.15 519.92C29.89 505.31 37.82 480.86 47.33 456.32C61.72 419.21 87.6 393.54 95.2 386.55C96.05 385.76 96.81 384.98 97.5 384.19C97.58 386.41 98.16 388 99.24 389.11C101.94 391.87 106.58 390.52 111.08 389.21C114.74 388.13 118.89 386.93 121.06 388.26C122.91 389.4 123.21 394.54 123.46 399.07C123.86 405.92 124.27 413 129.36 415.06C130.21 415.4 131.15 415.58 132.17 415.58C135.51 415.58 139.82 413.74 145.37 409.9L145.36 409.89Z" fill="black"/>
</g>
<g id="triceps">
<path id="Vector_14" d="M558.73 386.68C557.53 387.92 553.77 386.82 550.45 385.85C545.86 384.51 541.12 383.12 537.61 385.28C534.2 387.38 533.88 392.96 533.53 398.87C533.21 404.37 532.85 410.6 529.83 411.83C527.18 412.91 520.69 411.22 504.84 397.06C504.84 397.06 504.84 397.04 504.82 397.03C504.8 397.01 504.79 397 504.78 396.99C503.19 395.21 501.54 393.48 499.58 391.49C491.5 383.31 470.78 351.04 462.98 338.89L462.48 338.13V338.11C462.48 338.11 462.46 338.08 462.45 338.07C459.36 333 461.73 321.75 464.02 310.86C466.27 300.18 468.58 289.21 466.11 282.27C478.25 286.5 489.88 287.02 496.1 287.29C496.8 287.33 497.43 287.35 497.98 287.38C505.14 287.77 512.41 293.62 512.92 294.04C512.92 294.04 512.927 294.047 512.94 294.06C512.94 294.06 512.94 294.06 512.97 294.09C513.84 294.84 535.01 313.54 542.52 339.51C542.54 339.6 542.57 339.68 542.61 339.75C542.87 340.32 549.03 353.68 553.34 361.15C554.74 363.56 555.44 366.24 556.15 369.05C556.19 369.2 556.22 369.35 556.26 369.5C556.83 371.77 557.44 374.18 558.43 376.64C558.43 376.64 558.43 376.64 558.43 376.66C560.18 383.64 559.46 385.94 558.74 386.68H558.73Z" fill="black"/>
<path id="Vector_15" d="M198.03 338.14L198 338.19L197.55 338.9C189.74 351.05 169.02 383.32 160.95 391.5C158.98 393.5 157.31 395.25 155.69 397.05V397.07C139.84 411.21 133.35 412.9 130.71 411.83C127.69 410.61 127.32 404.37 127.01 398.87C126.67 392.96 126.34 387.38 122.94 385.28C119.42 383.12 114.67 384.51 110.09 385.85C106.78 386.82 103.01 387.92 101.81 386.68C101.08 385.94 100.37 383.65 102.12 376.66C102.12 376.66 102.12 376.66 102.12 376.64C103.11 374.17 103.71 371.77 104.29 369.5C105.04 366.51 105.74 363.7 107.22 361.15C111.53 353.68 117.69 340.32 117.95 339.75C117.99 339.67 118.01 339.59 118.04 339.51C125.65 313.16 147.4 294.24 147.62 294.06C147.62 294.06 147.65 294.04 147.66 294.02C148.33 293.48 155.5 287.76 162.58 287.38C163.14 287.35 163.76 287.33 164.46 287.29C170.68 287.02 182.32 286.5 194.45 282.26C191.98 289.2 194.28 300.17 196.54 310.86C198.84 321.79 201.23 333.08 198.07 338.13L198.03 338.14Z" fill="black"/>
</g>
<g id="lats">
<path id="Vector_16" d="M460.55 310.16C458.08 321.89 455.74 332.99 459.11 339.34C457.96 344.38 450.12 377.91 438.6 396.01C426.86 414.47 426.75 441.4 426.68 455.86C426.68 457.47 426.66 458.94 426.64 460.25C426.44 473.16 430.18 515.67 435.66 538.62C426.4 525.89 408.29 515.11 395.82 510.17C395.14 509.85 394.44 509.55 393.72 509.25C381.43 503.39 381.92 491.71 382.55 477.09C383.07 464.7 383.66 450.66 376.49 437.15C349.31 385.86 341.78 363.06 352.71 330.21C352.73 330.17 352.74 330.11 352.76 330.06C353.8 327.2 354.93 324.17 356.15 320.97C364.41 299.26 376.85 269.63 397.32 232.06L397.55 231.81C406.88 240.56 416.45 247.9 426.57 255.66C433.08 260.65 439.81 265.81 446.73 271.55C450.98 275.07 455.54 277.79 460.15 279.9H460.17C466.13 283.79 463.3 297.2 460.57 310.16H460.55Z" fill="black"/>
<path id="Vector_17" d="M284.03 437.14C276.87 450.66 277.46 464.69 277.98 477.08C278.6 491.73 279.09 503.44 266.73 509.27C266.73 509.27 266.7 509.27 266.69 509.29C266.04 509.55 265.4 509.83 264.79 510.11C264.79 510.11 264.77 510.11 264.76 510.11C252.29 515.05 234.12 525.85 224.85 538.61C230.31 515.65 234.06 473.15 233.86 460.24C233.84 458.93 233.83 457.45 233.82 455.84C233.76 441.38 233.64 414.46 221.9 396C210.38 377.9 202.53 344.37 201.39 339.33C204.76 332.98 202.42 321.88 199.95 310.15C197.2 297.16 194.38 283.72 200.38 279.86C204.98 277.76 209.53 275.04 213.77 271.53C220.69 265.79 227.42 260.63 233.93 255.64C244.05 247.89 253.62 240.54 262.95 231.79L263.18 232.04C286.69 275.23 299.63 307.9 307.77 330.15C307.77 330.17 307.79 330.18 307.79 330.19C318.72 363.04 311.18 385.84 284 437.13L284.03 437.14Z" fill="black"/>
</g>
<g id="lowerback">
<path id="Vector_18" d="M384.18 506.32C372.18 503.73 356.69 504.23 345.11 512.76C337.67 518.24 332.69 526.3 330.25 536.83C327.81 526.3 322.83 518.24 315.39 512.76C303.81 504.23 288.32 503.73 276.33 506.32C282.45 498.82 281.99 488.11 281.52 476.94C281.02 465 280.44 451.46 287.16 438.77C307.81 399.83 317.36 376.47 315.96 352.73C320.72 365.37 324.07 371.32 330.08 371.42C330.13 371.42 330.2 371.42 330.26 371.42C330.32 371.42 330.38 371.42 330.45 371.42C336.46 371.31 339.81 365.35 344.58 352.71C343.16 376.44 352.71 399.81 373.36 438.77C380.09 451.45 379.51 465 379.01 476.94C378.54 488.11 378.08 498.82 384.2 506.32H384.18Z" fill="black"/>
</g>
<g id="traps-middle">
<path id="Vector_19" d="M390.36 237.49C372.08 271.83 360.62 299.19 352.87 319.61C352.87 319.61 352.87 319.64 352.85 319.65C352.85 319.69 352.82 319.71 352.81 319.75C351.59 322.75 350.5 325.65 349.56 328.48C349.53 328.52 349.52 328.57 349.51 328.61C347.95 332.9 346.55 336.81 345.29 340.33C338.73 358.71 335.44 367.93 330.25 367.93C325.06 367.93 321.77 358.71 315.21 340.33C313.95 336.81 312.56 332.9 310.99 328.61C310.99 328.57 310.96 328.52 310.94 328.48C309.99 325.65 308.91 322.75 307.69 319.75C307.69 319.71 307.66 319.69 307.65 319.65C307.65 319.65 307.65 319.62 307.63 319.61C299.87 299.19 288.41 271.83 270.13 237.49C272.61 238.66 275.17 239.12 278.01 239.12C281.64 239.12 285.74 238.39 290.73 237.49C299.61 235.9 311.78 233.71 330.23 233.71C348.68 233.71 360.86 235.9 369.74 237.49C374.73 238.38 378.83 239.12 382.46 239.12C385.3 239.12 387.85 238.67 390.34 237.49H390.36Z" fill="black"/>
</g>
<g id="rear-shoulders">
<path id="Vector_20" d="M511.59 288.79C508.35 286.73 503.34 284.17 498.16 283.89C497.6 283.85 496.96 283.83 496.25 283.8C489.28 283.49 475.22 282.87 461.7 276.73C457.32 274.74 453 272.18 448.99 268.84C442.02 263.06 435.25 257.88 428.72 252.87C418.66 245.15 409.13 237.85 399.91 229.21C406.05 222.76 417.24 212.98 436.5 213.61H436.52C436.69 213.61 452.77 215.01 470.06 225.46C485.37 234.73 504.71 253.16 511.6 288.78L511.59 288.79Z" fill="black"/>
<path id="Vector_21" d="M260.61 229.21C251.38 237.86 241.86 245.16 231.8 252.87C225.26 257.88 218.51 263.06 211.53 268.84C207.53 272.17 203.19 274.73 198.82 276.73C185.3 282.88 171.24 283.49 164.27 283.8C163.56 283.83 162.92 283.85 162.35 283.89C157.17 284.16 152.16 286.73 148.92 288.79C155.82 253.17 175.15 234.73 190.47 225.46C207.76 215 223.84 213.61 224 213.61H224.02C243.3 212.99 254.47 222.75 260.62 229.21H260.61Z" fill="black"/>
</g>
<g id="body">
<path id="Vector_22" d="M266.34 935.47C265.45 915.63 249.87 910.35 238.08 919.04C223.97 929.44 201.96 879.51 194.52 906.75" stroke="#484A68" stroke-width="3.52" stroke-linecap="round" stroke-linejoin="round"/>
<path id="Vector_23" d="M17.22 535.8C19.31 543.79 23.77 549.68 28.89 551.64C33.88 553.55 40.89 552.29 47.74 548.08" stroke="#484A68" stroke-width="3.52" stroke-linecap="round" stroke-linejoin="round"/>
<path id="Vector_24" d="M102.63 368.78C90.72 403.79 113.41 381.51 121.98 386.78C130.71 392.14 113.75 436.87 156.94 398.3" stroke="#484A68" stroke-width="3.52" stroke-linecap="round" stroke-linejoin="round"/>
<path id="Vector_25" d="M223.86 211.87C247.34 211.08 259.26 225.11 264.67 231.03C277.24 244.77 285.39 231.97 330.26 231.97" stroke="#484A68" stroke-width="3.52" stroke-linecap="round" stroke-linejoin="round"/>
<path id="Vector_26" d="M264.67 231.03C317.17 327.38 316.44 369.68 330.26 369.68" stroke="#484A68" stroke-width="3.52" stroke-linecap="round" stroke-linejoin="round"/>
<path id="Vector_27" d="M146.43 292.74C146.43 292.74 154.35 286.07 162.45 285.64C170.55 285.21 194.57 285.21 212.67 270.19C230.77 255.18 247.39 244.27 263.09 229.29" stroke="#484A68" stroke-width="3.52" stroke-linecap="round" stroke-linejoin="round"/>
<path id="Vector_28" d="M306.02 320.31C322.12 359.76 314.6 383.25 285.6 437.96C269.8 467.77 292.97 500.94 265.65 511.66C248.17 518.52 222.57 535.57 220.8 552.51" stroke="#484A68" stroke-width="3.52" stroke-linecap="round" stroke-linejoin="round"/>
<path id="Vector_29" d="M199.54 339.06C207.28 326.68 186.42 286.48 199.54 278.34" stroke="#484A68" stroke-width="3.52" stroke-linecap="round" stroke-linejoin="round"/>
<path id="Vector_30" d="M330.26 614.06C330.26 649.87 305.88 645.75 280.48 644.22C253.32 642.58 217.16 624.92 236.86 564.04C245.71 536.69 245.39 517.15 272.68 509.07C291.98 503.35 330.26 504.5 330.26 553.72" stroke="#484A68" stroke-width="3.52" stroke-linecap="round" stroke-linejoin="round"/>
<path id="Vector_31" d="M203 791.63C203 791.63 216.43 887.99 238.71 832.48C260.99 776.98 237.42 864.55 266.35 864.55C279.45 864.55 287.52 845.17 295.16 793.86" stroke="#484A68" stroke-width="3.52" stroke-linecap="round" stroke-linejoin="round"/>
<path id="Vector_32" d="M183.71 965.72C185.42 997.57 189.51 1020.57 202.99 1021.37C216.92 1022.19 223.84 989.59 229.37 990.06C236.3 990.65 229.19 1021.24 244.81 1024.48C249.6 1025.47 259.65 1026.12 268.81 1002.35" stroke="#484A68" stroke-width="3.52" stroke-linecap="round" stroke-linejoin="round"/>
<path id="Vector_33" d="M394.18 935.47C395.07 915.63 410.65 910.35 422.44 919.04C436.55 929.44 458.56 879.51 466 906.75" stroke="#484A68" stroke-width="3.52" stroke-linecap="round" stroke-linejoin="round"/>
<path id="Vector_34" d="M643.3 535.8C641.21 543.79 636.75 549.68 631.63 551.64C626.64 553.55 619.63 552.29 612.78 548.08" stroke="#484A68" stroke-width="3.52" stroke-linecap="round" stroke-linejoin="round"/>
<path id="Vector_35" d="M557.89 368.78C569.8 403.79 547.11 381.51 538.54 386.78C529.81 392.14 546.77 436.87 503.58 398.3" stroke="#484A68" stroke-width="3.52" stroke-linecap="round" stroke-linejoin="round"/>
<path id="Vector_36" d="M390.56 191.86C368.64 185.95 345.18 187.85 335.21 188.27C331.91 188.41 328.62 188.41 325.32 188.27C315.34 187.85 291.88 185.95 269.97 191.86" stroke="#484A68" stroke-width="3.52" stroke-linecap="round" stroke-linejoin="round"/>
<path id="Vector_37" d="M436.66 211.87C413.18 211.08 401.26 225.11 395.85 231.03C383.28 244.77 375.13 231.97 330.26 231.97" stroke="#484A68" stroke-width="3.52" stroke-linecap="round" stroke-linejoin="round"/>
<path id="Vector_38" d="M395.85 231.03C343.35 327.38 344.08 369.68 330.26 369.68" stroke="#484A68" stroke-width="3.52" stroke-linecap="round" stroke-linejoin="round"/>
<path id="Vector_39" d="M514.09 292.74C514.09 292.74 506.17 286.07 498.07 285.64C489.97 285.21 465.95 285.21 447.85 270.19C429.75 255.18 413.13 244.27 397.43 229.29" stroke="#484A68" stroke-width="3.52" stroke-linecap="round" stroke-linejoin="round"/>
<path id="Vector_40" d="M354.5 320.31C338.4 359.76 345.92 383.25 374.92 437.96C390.72 467.77 367.55 500.94 394.87 511.66C412.35 518.52 437.95 535.57 439.72 552.51" stroke="#484A68" stroke-width="3.52" stroke-linecap="round" stroke-linejoin="round"/>
<path id="Vector_41" d="M460.98 339.06C453.24 326.68 474.1 286.48 460.98 278.34" stroke="#484A68" stroke-width="3.52" stroke-linecap="round" stroke-linejoin="round"/>
<path id="Vector_42" d="M330.26 614.06C330.26 649.87 354.64 645.75 380.04 644.22C407.2 642.58 443.36 624.92 423.66 564.04C414.81 536.69 415.13 517.15 387.84 509.07C368.54 503.35 330.26 504.5 330.26 553.72" stroke="#484A68" stroke-width="3.52" stroke-linecap="round" stroke-linejoin="round"/>
<path id="Vector_43" d="M457.52 791.63C457.52 791.63 444.09 887.99 421.81 832.48C399.53 776.98 423.1 864.55 394.17 864.55C381.07 864.55 373 845.17 365.36 793.86" stroke="#484A68" stroke-width="3.52" stroke-linecap="round" stroke-linejoin="round"/>
<path id="Vector_44" d="M476.8 965.72C475.09 997.57 471 1020.57 457.52 1021.37C443.59 1022.19 436.67 989.59 431.14 990.06C424.21 990.65 431.32 1021.24 415.7 1024.48C410.91 1025.47 400.86 1026.12 391.7 1002.35" stroke="#484A68" stroke-width="3.52" stroke-linecap="round" stroke-linejoin="round"/>
<path id="Vector_45" d="M330.26 553.71V614.06" stroke="#484A68" stroke-width="3.52" stroke-linecap="round" stroke-linejoin="round"/>
<path id="Vector_46" d="M330.26 619.22C325.01 656.48 327.98 665.83 317.15 711.51C307.24 753.3 295.74 779.12 289.32 833.17C282.9 887.22 264.1 876.5 263.64 900.18C276.98 1011.79 270.52 993.61 259.48 1025.24C248.44 1056.87 238.13 1098.16 235.89 1116.13C233.52 1135.18 237.41 1133.75 235.42 1143.42C233.43 1153.08 233.67 1167.52 234.76 1176.29C235.85 1185.06 235.06 1201.77 213.71 1201.77C192.36 1201.77 183.13 1188.53 183.13 1188.53C174.08 1185.85 164.31 1182.62 157.98 1181.55C141.51 1177.08 152.85 1167.41 152.85 1167.41C157.03 1161.71 163.12 1162.27 163.12 1162.27C166.86 1157.29 171.2 1157.75 171.2 1157.75C180.43 1152.02 190.74 1137.98 190.74 1137.98C192.39 1129.03 194.03 1122.25 195.13 1110.31C196.23 1098.37 190.74 1054.43 184.71 989.59C178.68 924.76 202.13 901.24 202.72 871.76C203.31 842.29 210.22 824.14 207.27 810.54C183.41 720.56 208.97 600.11 217.07 576.75C225.17 553.39 217.54 561.16 222.96 539.08C228.38 517.01 232.35 473.68 232.14 460.27C231.93 446.86 233.18 416.95 220.46 396.94C207.74 376.93 199.58 339.06 199.58 339.06C191.75 351.25 170.63 384.24 162.26 392.73C153.89 401.22 151.17 404.94 134.42 427.72C117.67 450.49 107 478.85 84.39 501.63C37.92 548.83 45.74 559.78 45.74 559.78C58.16 575.07 50.07 582.07 51.66 591.64C55.71 610.79 54.84 615.21 54.84 615.21C38.37 626.5 39.24 594.92 39.24 594.92C23.35 607.64 24.65 598.92 23.22 606.59C21.67 622.28 16.84 624.83 19.25 627.73C21.66 630.63 25.11 637.79 25.11 637.79C34.94 646.83 26.66 653.65 26.66 653.65C18.38 644.1 9.24999 642.91 7.69999 633.53C6.14999 624.15 1.79999 612.56 1.79999 604.45C2.87999 593.92 13.16 569.05 13.22 559.74C12.6 536.7 16.72 538.2 18.93 533.01C21.14 527.82 31.64 492.04 45.72 455.71C59.81 419.38 84.75 393.83 94.03 385.29C103.32 376.75 101.37 367.78 105.69 360.3C110.01 352.82 116.35 339.04 116.35 339.04C124.21 311.85 146.46 292.75 146.46 292.75C158.57 217 223.89 211.88 223.89 211.88" stroke="#484A68" stroke-width="3.52" stroke-linecap="round" stroke-linejoin="round"/>
<path id="Vector_47" d="M29.74 645.19C29.74 645.19 38.05 640.03 32.61 632.13C28.06 625.55 27.33 625.99 29.74 616.84C31.61 609.76 30.44 604.46 33.1 599.34" stroke="#484A68" stroke-width="3.52" stroke-linecap="round" stroke-linejoin="round"/>
<path id="Vector_48" d="M330.26 619.22C335.51 656.48 332.54 665.83 343.37 711.51C353.28 753.3 364.78 779.12 371.2 833.17C377.62 887.22 396.42 876.5 396.88 900.18C383.54 1011.79 390 993.61 401.04 1025.24C412.08 1056.87 422.39 1098.16 424.63 1116.13C427 1135.18 423.11 1133.75 425.1 1143.42C427.09 1153.08 426.85 1167.52 425.76 1176.29C424.67 1185.06 425.46 1201.77 446.81 1201.77C468.16 1201.77 477.39 1188.53 477.39 1188.53C486.44 1185.85 496.21 1182.62 502.54 1181.55C519.01 1177.08 507.67 1167.41 507.67 1167.41C503.49 1161.71 497.4 1162.27 497.4 1162.27C493.66 1157.29 489.32 1157.75 489.32 1157.75C480.09 1152.02 469.78 1137.98 469.78 1137.98C468.13 1129.03 466.49 1122.25 465.39 1110.31C464.29 1098.37 469.78 1054.43 475.81 989.59C481.84 924.76 458.39 901.24 457.8 871.76C457.21 842.29 450.3 824.14 453.25 810.54C477.11 720.56 451.55 600.11 443.45 576.75C435.35 553.39 442.98 561.16 437.56 539.08C432.14 517.01 428.17 473.68 428.38 460.27C428.59 446.86 427.34 416.95 440.06 396.94C452.78 376.93 460.94 339.06 460.94 339.06C468.77 351.25 489.89 384.24 498.26 392.73C506.63 401.22 509.35 404.94 526.1 427.72C542.85 450.49 553.52 478.85 576.13 501.63C622.6 548.83 614.78 559.78 614.78 559.78C602.36 575.07 610.45 582.07 608.86 591.64C604.81 610.79 605.68 615.21 605.68 615.21C622.15 626.5 621.28 594.92 621.28 594.92C637.17 607.64 635.87 598.92 637.3 606.59C638.85 622.28 643.68 624.83 641.27 627.73C638.86 630.63 635.41 637.79 635.41 637.79C625.58 646.83 633.86 653.65 633.86 653.65C642.14 644.1 651.27 642.91 652.82 633.53C654.37 624.15 658.72 612.56 658.72 604.45C657.64 593.92 647.36 569.05 647.3 559.74C647.92 536.7 643.8 538.2 641.59 533.01C639.38 527.82 628.88 492.04 614.8 455.71C600.71 419.38 575.77 393.83 566.49 385.29C557.21 376.75 559.15 367.78 554.83 360.3C550.51 352.82 544.17 339.04 544.17 339.04C536.31 311.85 514.06 292.75 514.06 292.75C501.95 217 436.63 211.88 436.63 211.88" stroke="#484A68" stroke-width="3.52" stroke-linecap="round" stroke-linejoin="round"/>
<path id="Vector_49" d="M630.78 645.19C630.78 645.19 622.47 640.03 627.91 632.13C632.46 625.55 633.19 625.99 630.78 616.84C628.91 609.76 630.08 604.46 627.42 599.34" stroke="#484A68" stroke-width="3.52" stroke-linecap="round" stroke-linejoin="round"/>
<g id="Group">
<path id="Vector_50" d="M228.95 211.29C230.52 210.59 238.66 205.14 243.65 202.88C248.64 200.62 269.04 192.44 274.17 189.9C279.31 187.36 288.58 178.33 288.58 178.33L288.83 175.17C289.55 167.39 289.85 135.82 289.85 135.82C286.94 130.06 286.36 120.25 286.36 120.25C279.07 121.69 273.83 118.38 272.37 99.21C271.54 88.27 274.89 84.76 277.92 83.77" stroke="#484A68" stroke-width="3.52" stroke-linecap="round" stroke-linejoin="round"/>
<path id="Vector_51" d="M382.62 83.78C385.64 84.78 388.99 88.29 388.16 99.22C386.7 118.39 381.45 121.7 374.17 120.26C374.17 120.26 373.59 130.07 370.67 135.83C370.67 135.83 370.96 167.4 371.7 175.18L371.94 178.34C371.94 178.34 381.21 187.37 386.35 189.91C391.49 192.45 411.89 200.64 416.88 202.89C421.87 205.14 430.01 210.6 431.57 211.3" stroke="#484A68" stroke-width="3.52" stroke-linecap="round" stroke-linejoin="round"/>
</g>
<path id="Vector_52" d="M330.26 131.3C346.04 131.3 355.38 143.33 359.74 140.81C364.09 138.3 367.81 127.8 376.15 117.04C384.49 106.28 375.79 104.48 385.23 74.34C394.66 44.2 370.72 17.88 364.55 13.93C358.38 9.98002 381.96 23.97 369.27 10.7C356.57 -2.56999 330.81 6.40001 322.83 8.55001C314.85 10.7 350.04 -1.13998 322.83 2.45002C300.71 5.37002 282.91 17.05 276.04 37.11" stroke="#484A68" stroke-width="3.52" stroke-linecap="round" stroke-linejoin="round"/>
<path id="Vector_53" d="M330.26 131.3C314.47 131.3 305.13 143.33 300.78 140.81C296.42 138.3 292.7 127.8 284.36 117.04C276.02 106.28 284.72 104.48 275.29 74.34C273.8 69.6 273.15 56.44 273.12 52.33V52.29C273.08 46.63 274.23 41.56 276.05 37.11" stroke="#484A68" stroke-width="3.52" stroke-linecap="round" stroke-linejoin="round"/>
</g>
</g>
<defs>
<clipPath id="clip0_1_2">
<rect width="660.46" height="1206.46" fill="white"/>
</clipPath>
</defs>
</svg>
